<?xml version="1.0" encoding="utf-8"?>
<!-- Generator: Adobe Illustrator 19.1.0, SVG Export Plug-In . SVG Version: 6.00 Build 0)  -->
<svg version="1.1" id="Lager_1" xmlns="http://www.w3.org/2000/svg" xmlns:xlink="http://www.w3.org/1999/xlink" x="0px" y="0px"
	 viewBox="0 0 425.2 425.2" style="enable-background:new 0 0 425.2 425.2;" xml:space="preserve">
<style type="text/css">
	.st0{fill:#FFFFFF;}
	.st1{fill:#65C2C8;}
	.st2{fill:#63C1C7;}
</style>
<path class="st0" d="M362.2,424.2H60c-33.1,0-60-27.1-60-60.5V59.5C0,26.1,26.9-1,60-1h302.1c33.1,0,60,27.1,60,60.5v304.3
	C422.2,397.1,395.3,424.2,362.2,424.2z M60,4.9C30.2,4.9,5.9,29.4,5.9,59.5v304.3c0,30.1,24.3,54.6,54.2,54.6h302.1
	c29.9,0,54.2-24.5,54.2-54.6V59.5c0-30.1-24.3-54.6-54.2-54.6H60z"/>
<path class="st1" d="M202.4,153.6c-20.9,0-37.6-6.3-44.9-15.7c0,0,0,0,0,1c0,12.5,20.9,21.9,44.9,21.9c1,0,2.1,0,3.1,0
	c0-1,1-3.1,1-4.2c0-1-1-2.1-1-3.1C204.5,153.6,203.4,153.6,202.4,153.6z"/>
<path class="st1" d="M202.4,140.9c-19.9,0-36.6-6.3-44.9-15.7c0,1,0,1,0,2.1c0,12.5,20.9,21.9,44.9,21.9c1,0,2.1,0,3.1,0
	c0-2.1,1-4.2,1-6.3c0-1-1-2.1-1-3.1C204.5,140.9,203.4,140.9,202.4,140.9z"/>
<path class="st1" d="M247.3,110.7c-3.1-10.5-21.9-18.8-44.9-18.8c-24,0-44.9,10.5-44.9,21.9s20.9,21.9,44.9,21.9c1,0,2.1,0,3.1,0
	C205.5,123.3,223.3,112.8,247.3,110.7z"/>
<path class="st1" d="M254.6,201.6c-20.9,0-37.6-6.3-44.9-15.7c0,0,0,0,0,1c0,12.5,20.9,21.9,44.9,21.9s44.9-10.5,44.9-21.9
	c0,0,0,0,0-1C292.2,195.4,274.5,201.6,254.6,201.6z"/>
<path class="st1" d="M254.6,189.1c-19.9,0-36.6-6.3-44.9-15.7c0,1,0,1,0,2.1c0,12.5,20.9,21.9,44.9,21.9s44.9-10.5,44.9-21.9
	c0-1,0-1,0-2.1C291.2,182.8,274.5,189.1,254.6,189.1z"/>
<path class="st1" d="M254.6,176.4c-19.9,0-37.6-6.3-44.9-15.7c0,1,0,1,0,2.1c0,12.5,20.9,21.9,44.9,21.9s44.9-10.5,44.9-21.9
	c0-1,0-1,0-2.1C291.2,171.2,274.5,176.4,254.6,176.4z"/>
<path class="st1" d="M254.6,163.9c-19.9,0-36.6-6.3-44.9-15.7c0,1,0,1,0,2.1c0,12.5,20.9,21.9,44.9,21.9s44.9-10.5,44.9-21.9
	c0-1,0-1,0-2.1C291.2,157.6,274.5,163.9,254.6,163.9z"/>
<path class="st1" d="M254.6,114.9c-24,0-44.9,10.5-44.9,21.9s20.9,21.9,44.9,21.9s44.9-10.5,44.9-21.9S278.7,114.9,254.6,114.9z"/>
<path class="st0" d="M254.6,110.7c-1,0-2.1,0-3.1,0c-3.1-13.6-23-23-48.1-23c-27.2,0-49.1,11.5-49.1,26.1c0,2.1,1,4.2,2.1,6.3
	c-1,2.1-2.1,4.2-2.1,6.3c0,2.1,0,4.2,1,5.2c-2.1,3.1-2.1,5.2-2.1,6.3c0,14.6,21.9,26.1,49.1,26.1c1,0,2.1,0,3.1,0c0,2.1,1,3.1,1,5.2
	c-1,2.1-1,4.2-1,6.3c0,2.1,0,4.2,1,5.2c-1,2.1-1,4.2-1,6.3c0,14.6,21.9,26.1,49.1,26.1s49.1-11.5,49.1-26.1c0-2.1,0-4.2-1-5.2
	c1-2.1,1-4.2,1-5.2c0-2.1-1-4.2-2.1-6.3c1-2.1,2.1-4.2,2.1-6.3c0-2.1-1-4.2-2.1-6.3c1-2.1,2.1-4.2,2.1-6.3c0-2.1-1-4.2-2.1-6.3
	c1-2.1,2.1-4.2,2.1-6.3C303.7,122.2,281.8,110.7,254.6,110.7z M205.5,160.9c-1,0-2.1,0-3.1,0c-24,0-44.9-10.5-44.9-21.9c0,0,0,0,0-1
	c7.3,9.4,25.1,15.7,44.9,15.7c1,0,2.1,0,3.1,0c0,1,0,2.1,1,3.1C206.5,157.8,205.5,158.8,205.5,160.9z M205.5,149.4c-1,0-2.1,0-3.1,0
	c-24,0-44.9-10.5-44.9-21.9c0-1,0-1,0-2.1c7.3,9.4,24,15.7,44.9,15.7c1,0,2.1,0,3.1,0c0,1,1,2.1,1,3.1S205.5,147.3,205.5,149.4z
	 M205.5,135.8c-1,0-2.1,0-3.1,0c-24,0-44.9-10.5-44.9-21.9s20.9-21.9,44.9-21.9c21.9,0,41.8,8.4,44.9,18.8
	C223.3,112.8,205.5,123.3,205.5,135.8z M254.6,209c-24,0-44.9-10.5-44.9-21.9c0,0,0,0,0-1c7.3,9.4,25.1,15.7,44.9,15.7
	c19.9,0,37.6-6.3,44.9-15.7c0,0,0,0,0,1C299.6,198.5,278.7,209,254.6,209z M254.6,197.5c-24,0-44.9-10.5-44.9-21.9c0-1,0-1,0-2.1
	c7.3,9.4,24,15.7,44.9,15.7s36.6-6.3,44.9-15.7c0,1,0,1,0,2.1C299.6,188.1,278.7,197.5,254.6,197.5z M254.6,184.9
	c-24,0-44.9-10.5-44.9-21.9c0-1,0-1,0-2.1c7.3,9.4,24,15.7,44.9,15.7s37.6-6.3,44.9-15.7c0,1,0,1,0,2.1
	C299.6,174.5,278.7,184.9,254.6,184.9z M254.6,172.4c-24,0-44.9-10.5-44.9-21.9c0-1,0-1,0-2.1c7.3,9.4,24,15.7,44.9,15.7
	s36.6-6.3,44.9-15.7c0,1,0,1,0,2.1C299.6,161.9,278.7,172.4,254.6,172.4z M254.6,158.8c-24,0-44.9-10.5-44.9-21.9
	c0-11.5,20.9-21.9,44.9-21.9s44.9,10.5,44.9,21.9S278.7,158.8,254.6,158.8z"/>
<g>
	<path class="st2" d="M3,250.7L62.1,225c0,0,37.8-19.9,71.2-12.8s86.8,18,102.6,21.2c19.2,3.8,33.3,7.7,38.5,14.7
		c5.1,7.1,6.4,19.9-9,22.4s-78.9-1.3-91.7-3.2c0,0,12.3-0.4,24.4,2.2s53.8,11.1,68.5,7.2c14.7-3.8,73.7-27.9,89.1-34.4
		c15.4-6.4,29.5,8.3,25.7,22.4c0,0-2.6,6.6-23.1,17.1c-20.9,10.7-41.2,22.6-61.6,34.1c-17.5,9.9-34.6,23.7-55.1,26.3
		c-13.2,1.7-26.1-3.3-38.6-7c-26.7-7.9-53.4-16-80.1-24.1c-7.5-2.3-14.9-4.5-22.4-6.8c0,0-14.1-5.1-27.6,3.8S3,350.7,3,350.7V250.7z
		"/>
	<g>
		<path class="st0" d="M2.8,250.5l14.8-6.8l14.7-6.7c9.8-4.5,19.6-8.8,29.4-13.2l-0.1,0c6.5-3.3,13.1-6,19.9-8.3
			c6.8-2.3,13.8-4.1,21-5.2c7.1-1.2,14.4-1.6,21.7-1.1c3.6,0.2,7.3,0.8,10.8,1.6l10.5,2.1l41.9,8.5l41.9,8.7c7,1.5,14,2.8,21,4.6
			c3.5,0.9,7,1.9,10.4,3.1c3.4,1.2,6.8,2.7,10,4.7c1.6,1.1,3.1,2.3,4.3,3.8c1.3,1.5,2.2,3.2,2.9,5c1.4,3.5,2,7.6,0.6,11.4
			c-0.7,1.9-1.9,3.6-3.4,4.9c-1.5,1.3-3.2,2.2-5,2.9c-3.6,1.3-7.3,1.5-10.9,1.7c-7.2,0.3-14.3,0.2-21.5,0
			c-7.1-0.2-14.3-0.5-21.4-0.9c-7.1-0.4-14.3-0.8-21.4-1.3c-7.1-0.5-14.2-1-21.4-2l0.1-1.3c4.9-0.1,9.7,0.2,14.5,0.7
			c2.4,0.3,4.8,0.6,7.2,1c2.4,0.4,4.8,1,7.1,1.4c9.5,1.9,18.9,3.6,28.5,5c4.8,0.7,9.6,1.3,14.3,1.7c4.8,0.4,9.6,0.7,14.4,0.4
			c2.4-0.1,4.8-0.4,7-1c1.2-0.4,2.3-0.7,3.5-1l3.4-1.1c4.5-1.6,9.1-3.3,13.6-5c4.5-1.7,9-3.5,13.5-5.2l13.4-5.4
			c8.9-3.6,17.9-7.3,26.8-11l13.3-5.6l0.8-0.4l0.2-0.1l0.3-0.1l0.4-0.2l0.8-0.3l1-0.3c1.3-0.4,2.5-0.6,3.8-0.7
			c2.6-0.2,5.3,0,7.8,0.9c5,1.6,9.2,5.2,11.8,9.8c2.6,4.5,3.4,10.1,2,15.2l0,0.1l0,0.1c-0.2,0.5-0.4,0.7-0.5,1
			c-0.2,0.3-0.3,0.5-0.5,0.8c-0.4,0.5-0.7,0.9-1.1,1.4c-0.8,0.9-1.6,1.7-2.4,2.4c-1.7,1.5-3.5,2.9-5.3,4.2
			c-3.6,2.6-7.4,4.8-11.3,6.9l-11.6,6.1c-3.8,2-7.6,4.1-11.5,6.2c-7.6,4.2-15.2,8.5-22.7,12.9l-11.3,6.5c-3.8,2.2-7.6,4.3-11.3,6.5
			c-7.4,4.5-14.7,9.3-22.4,13.6c-7.7,4.3-15.9,8-24.8,9.8c-1.1,0.2-2.2,0.4-3.3,0.6l-0.8,0.1l-0.3,0l-0.2,0l-0.4,0l-1.6,0.2
			c-2.3,0.1-4.6,0.2-6.9,0c-4.5-0.3-8.9-1.2-13.2-2.2c-4.3-1.1-8.5-2.4-12.6-3.7l-12.5-3.8l-50-15.2l-25-7.7l-12.5-3.9l-6.2-1.9
			l-0.8-0.3l-0.7-0.2c-0.5-0.1-1-0.3-1.5-0.4c-1-0.2-2-0.4-3.1-0.5c-4.1-0.5-8.3-0.2-12.3,0.9c-2,0.6-3.9,1.3-5.7,2.3
			c-0.5,0.2-0.9,0.5-1.4,0.8l-1.3,0.8l-2.7,1.8c-7.4,4.7-14.9,9.2-22.4,13.6c-15,8.9-30,17.7-45.1,26.5l-1.7,1l0-2l0.4-50L2.8,250.5
			z M3.2,250.8l0.5,49.9l0.4,50l-1.7-1c14.9-8.9,29.9-17.9,44.7-27c7.4-4.6,14.9-9.1,22.2-13.8l2.7-1.8l1.4-0.9
			c0.5-0.3,1-0.6,1.5-0.8c2-1.1,4.2-2,6.3-2.6c4.4-1.3,9-1.6,13.6-1.1c1.1,0.1,2.3,0.3,3.4,0.5c0.6,0.1,1.1,0.2,1.7,0.4
			c0.3,0.1,0.6,0.2,0.9,0.2l0.8,0.2l6.3,1.9l12.5,3.7l25.1,7.4l50.1,14.9l12.5,3.7c4.2,1.3,8.3,2.6,12.4,3.6c4.1,1,8.3,1.9,12.5,2.1
			c2.1,0.2,4.2,0.1,6.2,0l1.6-0.2l0.4,0l0.2,0c0.1,0,0,0,0,0l0.1,0l0.8-0.1c1-0.1,2.1-0.3,3.1-0.5c8.3-1.7,16.1-5.2,23.6-9.3
			c7.5-4.1,14.8-8.9,22.3-13.4c3.8-2.3,7.6-4.3,11.4-6.5l11.4-6.4c7.6-4.3,15.2-8.6,22.8-12.8c3.8-2.1,7.7-4.2,11.5-6.2l11.6-6
			c3.8-2,7.5-4.2,11-6.6c1.7-1.2,3.4-2.5,5-3.9c0.8-0.7,1.5-1.4,2.2-2.2c0.3-0.4,0.7-0.8,0.9-1.1c0.2-0.2,0.3-0.4,0.4-0.6
			c0.1-0.2,0.3-0.4,0.3-0.4l-0.1,0.2c1.2-4.2,0.6-8.9-1.6-12.8c-2.1-3.9-5.7-7-9.9-8.4c-2.1-0.7-4.3-1-6.5-0.8
			c-1.1,0.1-2.2,0.3-3.3,0.6l-0.8,0.2l-0.8,0.3l-0.4,0.2l-0.2,0.1l-0.2,0.1l-0.8,0.3l-13.4,5.4c-9,3.6-18,7.1-27,10.6l-13.5,5.2
			c-4.5,1.7-9,3.4-13.6,5.1c-4.5,1.7-9.1,3.3-13.7,4.8l-3.5,1.1c-1.2,0.4-2.3,0.7-3.5,1c-2.5,0.7-4.9,0.8-7.3,1
			c-4.9,0.2-9.7-0.1-14.6-0.5c-4.8-0.4-9.6-1-14.4-1.7c-9.6-1.4-19.1-3.2-28.5-5.1c-2.4-0.5-4.7-1-7.1-1.4c-2.4-0.4-4.7-0.7-7.1-1
			c-4.8-0.5-9.6-0.7-14.4-0.6l0.1-1.3c7,0.9,14.2,1.4,21.3,1.9c7.1,0.5,14.2,0.9,21.3,1.1c7.1,0.3,14.2,0.5,21.4,0.6
			c7.1,0.1,14.2,0.1,21.3-0.3c3.5-0.2,7-0.5,10.1-1.7c3.1-1.2,5.7-3.3,6.7-6.3c1-3,0.6-6.4-0.7-9.4c-0.6-1.5-1.5-3-2.5-4.2
			c-1-1.2-2.3-2.2-3.7-3.2c-2.8-1.8-6.1-3.1-9.4-4.3c-3.3-1.1-6.7-2.1-10.1-2.9c-6.9-1.7-13.9-2.9-20.9-4.4l-41.9-8.6l-41.9-8.8
			l-10.5-2.2c-3.5-0.7-6.9-1.3-10.4-1.6c-7-0.5-14-0.1-21,1c-7,1.1-13.8,2.7-20.6,4.9c-6.7,2.1-13.4,4.7-19.7,7.8l-0.1,0l0,0
			c-9.9,4.1-19.8,8.4-29.7,12.4L18,244.7L3.2,250.8z"/>
	</g>
</g>
</svg>
