<?xml version="1.0" encoding="utf-8"?>
<!-- Generator: Adobe Illustrator 19.1.0, SVG Export Plug-In . SVG Version: 6.00 Build 0)  -->
<svg version="1.1" id="Lager_1" xmlns="http://www.w3.org/2000/svg" xmlns:xlink="http://www.w3.org/1999/xlink" x="0px" y="0px"
	 viewBox="0 0 425.2 425.2" style="enable-background:new 0 0 425.2 425.2;" xml:space="preserve">
<style type="text/css">
	.st0{fill:#63C1C7;}
	.st1{fill:#FFFFFF;}
</style>
<g>
	<g>
		<path class="st0" d="M155,421c0.9-59.6-0.3-134.3-6.6-137.6c-14-7.4-22.9-27.5-26.3-41.6c-3-12.5-3-23.4-3.1-36.2
			c0-2.4,3.5-21.5,2.4-22.7c-5.5-5.6-7.6-25.5-7.6-25.5c-3.5-11.8,10.4-45,10.4-45l-0.1-3.1L253.7,131l31.4,136.7
			c-12.4,21.8-13.3,94.2-12,152.5"/>
		<path class="st1" d="M154.8,421c-0.1-11.5-0.3-22.9-0.4-34.4c-0.2-11.5-0.4-22.9-0.8-34.4c-0.4-11.5-1-22.9-1.7-34.3
			c-0.4-5.7-0.8-11.4-1.4-17c-0.3-2.8-0.7-5.6-1.2-8.4c-0.2-1.4-0.5-2.7-0.9-4c-0.2-0.6-0.4-1.3-0.6-1.8c-0.2-0.6-0.5-1.1-0.6-1.3
			c0,0-0.1-0.1,0,0c0,0,0.1,0.1,0.1,0.1l-0.3-0.2l-0.9-0.5c-0.6-0.4-1.4-0.8-2-1.3c-1.3-0.9-2.5-1.8-3.6-2.8c-2.3-2-4.3-4.2-6.2-6.6
			c-3.7-4.7-6.7-9.9-9.1-15.2c-2.5-5.4-4.4-10.9-5.9-16.7c-1.4-5.7-2.3-11.6-2.8-17.4c-0.5-5.8-0.6-11.6-0.6-17.4l0-1.1l0-0.5l0-0.4
			l0-0.4c0.1-0.9,0.2-1.6,0.3-2.3l0.6-4.3c0.4-2.8,0.8-5.7,1.2-8.5c0.2-1.4,0.3-2.8,0.4-4.1c0-0.6,0.1-1.3,0-1.8c0-0.1,0-0.2,0-0.1
			c0,0,0,0.1,0,0.1c0,0.1,0,0.1,0.1,0.3c0.1,0.2,0.1,0.2,0.4,0.6c0.2,0.2,0.2,0.2,0.1,0.1l0,0l-0.4-0.4l-0.1-0.1l-0.1-0.2l-0.2-0.3
			c-0.4-0.4-0.6-0.8-0.8-1.2c-0.2-0.4-0.4-0.7-0.7-1.1c-0.4-0.7-0.7-1.5-1.1-2.2c-0.6-1.5-1.1-2.9-1.6-4.4c-0.9-2.9-1.6-5.8-2.1-8.7
			c-0.6-2.9-1-5.8-1.4-8.8l0.1,0.6c-0.7-2.5-0.7-4.7-0.7-6.8c0.1-2.1,0.3-4.2,0.6-6.2c0.7-4,1.6-7.9,2.7-11.7
			c1.1-3.8,2.3-7.6,3.6-11.3c0.6-1.9,1.3-3.7,2-5.6l1.1-2.8l1.1-2.8l-0.3,1.4l-0.1-3.1l-0.1-4.2l4.1,0.7l32.4,5.3l16.2,2.7l16.2,2.8
			l64.8,11.1l2.2,0.4l0.5,2.2l15.5,68.4c1.3,5.7,2.6,11.4,3.8,17.1l3.8,17.1l7.5,34.2l0.2,1l-0.5,0.8c-1.5,2.5-2.6,5.4-3.5,8.4
			c-0.9,3-1.7,6-2.4,9.1c-1.4,6.2-2.3,12.5-3.1,18.8c-0.8,6.3-1.4,12.7-1.9,19c-0.5,6.4-1,12.8-1.3,19.1
			c-0.7,12.8-1.1,25.6-1.3,38.4l-0.2,19.2c-0.1,6.4-0.1,12.8-0.1,19.2l-0.4,0c-0.6-25.6-0.7-51.3,0.2-77c0.5-12.8,1.3-25.6,2.7-38.4
			c0.7-6.4,1.7-12.7,3-19c0.7-3.1,1.4-6.3,2.4-9.3c1-3.1,2.1-6.1,3.7-8.9l0,0.2l-31.4-136.7l0.3,0.3L124,109.5l0.4-0.4l0.1,3.1
			l0,0.1l0,0.1c-1.5,3.6-2.8,7.2-4.1,10.9c-1.3,3.7-2.5,7.4-3.5,11.1c-1.1,3.7-2,7.5-2.6,11.3c-0.3,1.9-0.5,3.8-0.6,5.8
			c-0.1,1.9,0,3.9,0.5,5.7l0,0l0,0c0.7,5.7,1.7,11.3,3.3,16.8c0.9,2.7,1.8,5.4,3.5,7.7c0.2,0.3,0.4,0.5,0.7,0.8c0,0,0.2,0.2,0.2,0.3
			c0,0.1,0.1,0.2,0.1,0.3c0,0.2,0.1,0.4,0.1,0.6c0,0.7,0,1.5-0.1,2.2c-0.1,1.4-0.3,2.9-0.5,4.3c-0.4,2.8-0.8,5.7-1.2,8.5l-0.6,4.3
			c-0.1,0.7-0.2,1.4-0.2,2.1c0,0.7,0,1.4,0,2.1c0,5.7,0.1,11.5,0.5,17.2c0.4,5.7,1.2,11.4,2.5,17c1.3,5.6,3.2,11,5.5,16.2
			c2.3,5.2,5.2,10.2,8.6,14.8c1.7,2.3,3.7,4.4,5.8,6.3c1.1,0.9,2.2,1.8,3.3,2.6c0.6,0.4,1.2,0.8,1.8,1.2l0.9,0.5l0.2,0.1
			c0.1,0.1,0.2,0.1,0.3,0.2c0.2,0.1,0.3,0.3,0.4,0.4c0.9,1.3,1.2,2.7,1.6,4.1c0.3,1.4,0.6,2.8,0.9,4.2c0.5,2.8,0.8,5.7,1.1,8.5
			c0.6,5.7,1,11.4,1.3,17.2c0.6,11.5,0.9,22.9,1.1,34.4c0.4,22.9,0.3,45.9,0,68.8L154.8,421z"/>
	</g>
	<g>
		<path class="st0" d="M128.1,94.4c0,0-12.4,8.6-10.8,17.9s10.8,47.2,10.8,47.2s5.4,17.9,12.4,22.9c7,5,24,12.2,30.1,6.4
			c6.2-5.7,0-22.2,0-22.2l-20.1-65.9C150.5,100.8,145.1,86.5,128.1,94.4z"/>
		<path class="st1" d="M128.1,94.4c0,0-0.8,0.5-2.2,1.7c-1.3,1.2-3.3,3.1-5.1,5.9c-1.8,2.8-3.4,6.8-2,10.9c0.6,2.3,1.3,4.7,2,7.2
			c0.4,1.3,0.6,2.6,0.9,4c0.3,1.4,0.6,2.7,0.9,4.2c1.3,5.6,2.8,11.8,4.3,18.2c0.8,3.2,1.6,6.6,2.4,9.9c0.2,0.8,0.4,1.7,0.6,2.6
			l0.4,1.1l0.4,1.2c0.6,1.6,1.2,3.3,1.9,5c1.3,3.3,2.9,6.6,4.8,9.6c0.9,1.5,2,2.9,3.2,4.1l0.9,0.8c0.2,0.2,0.8,0.6,1.1,0.8
			c0.7,0.5,1.5,1,2.3,1.4c3.2,1.8,6.6,3.3,10.1,4.5c3.5,1.1,7.2,1.9,10.5,1.6c1.7-0.2,3.1-0.7,4-1.7c0.9-1,1.5-2.5,1.7-4.1
			c0.5-3.4-0.1-7.1-1-10.6c-0.2-0.9-0.5-1.8-0.7-2.7l-0.4-1.3l-0.5-1.4c-0.6-1.8-1.1-3.6-1.6-5.4c-1.1-3.6-2.2-7.1-3.2-10.6
			c-4.2-13.9-8.2-26.8-11.6-37.9c-0.4-1.4-0.8-2.7-1.3-4.1c-0.4-1.3-0.8-2.6-1.1-3.9c-0.3-1.3-0.6-2.5-0.9-3.8
			c-0.1-0.3-0.3-0.9-0.5-1.4c-0.2-0.5-0.5-1-0.8-1.4c-1.1-1.8-2.6-3.3-4.2-4.4c-0.4-0.2-0.8-0.5-1.2-0.7c-0.4-0.2-0.9-0.4-1.3-0.5
			c-0.4-0.2-0.9-0.2-1.3-0.3c-0.4-0.1-0.8-0.2-1.2-0.2c-0.4,0-0.8-0.1-1.2-0.1c-0.4,0-0.8-0.1-1.1,0c-0.7,0.1-1.4,0.1-2.1,0.2
			c-1.3,0.3-2.4,0.5-3.2,0.8C129,94,128.1,94.4,128.1,94.4z M128.1,94.4c0,0,0.9-0.4,2.6-1.1c0.4-0.2,0.9-0.3,1.4-0.5
			c0.5-0.2,1.1-0.3,1.8-0.5c0.7-0.1,1.4-0.3,2.1-0.4c0.4-0.1,0.8-0.1,1.2-0.1c0.4,0,0.8,0,1.3-0.1c0.4-0.1,0.9,0,1.3,0.1
			c0.5,0,0.9,0,1.4,0.1c0.5,0.1,1,0.2,1.5,0.3c0.5,0.1,1,0.3,1.5,0.5c2,0.8,4,2.2,5.7,4.1c0.4,0.5,0.8,1,1.2,1.6
			c0.2,0.3,0.4,0.6,0.6,0.9c0.1,0.1,0.2,0.3,0.3,0.5l0.1,0.3l0.1,0.1c0-0.1,0.1,0.2,0.1,0.2l0,0.1c0.4,1.2,0.9,2.4,1.4,3.6
			c0.5,1.2,0.9,2.5,1.2,3.9c0.4,1.3,0.8,2.7,1.2,4.1c3.4,11.1,7.3,24.1,11.6,37.9c1.1,3.5,2.1,7,3.2,10.6c0.5,1.8,1.1,3.6,1.6,5.4
			l0.4,1.3l0.4,1.4c0.3,0.9,0.5,1.9,0.8,2.9c0.5,1.9,0.8,3.9,1.1,5.9c0.2,2,0.3,4.1,0,6.3c-0.3,2.1-1,4.4-2.8,6.3
			c-0.8,0.9-1.9,1.6-3,2.1c-1.1,0.5-2.2,0.7-3.3,0.8c-2.2,0.3-4.3,0.1-6.3-0.3c-2-0.3-4-0.9-5.9-1.5c-3.8-1.2-7.4-2.9-10.9-4.8
			c-0.9-0.5-1.7-1-2.6-1.6c-0.5-0.3-0.8-0.5-1.2-0.9l-1.3-1.1c-1.5-1.5-2.7-3.1-3.8-4.8c-2.1-3.3-3.7-6.8-5.1-10.2
			c-0.7-1.7-1.3-3.4-1.9-5.1l-0.4-1.3l-0.2-0.7l-0.1-0.3l-0.1-0.2l-0.1-0.3c-0.2-0.9-0.4-1.7-0.6-2.6c-0.8-3.4-1.6-6.7-2.4-10
			c-1.5-6.5-3-12.6-4.3-18.3c-0.3-1.4-0.7-2.8-1-4.2c-0.3-1.3-0.6-2.7-0.9-4c-0.2-1.3-0.4-2.6-0.6-3.9c-0.2-1.3-0.3-2.5-0.4-3.7
			c0-0.3-0.1-0.6-0.1-0.9c0-0.3,0-0.7,0-1c0-0.3,0-0.6,0-1c0-0.3,0.1-0.6,0.1-0.9c0.1-0.6,0.2-1.2,0.4-1.7c0.2-0.5,0.3-1.1,0.6-1.6
			c0.2-0.5,0.4-1,0.7-1.4c0.3-0.4,0.5-0.9,0.8-1.3c0.6-0.8,1.1-1.5,1.7-2.2c2.2-2.6,4.3-4.3,5.7-5.5
			C127.3,94.9,128.1,94.4,128.1,94.4z"/>
	</g>
	<g>
		<path class="st0" d="M148.4,92.4c0,0,13.5-28.9,38.2-10.5c0,0,21.7,70.9,21.7,71.1c2,6.7,2.6,14.2,2.4,21.2
			c-0.5,14.7-23,7-31.3,3.7c-5.5-2.1-7.8-5.1-13-17.1C161.2,149,148.4,92.4,148.4,92.4z"/>
		<path class="st1" d="M148.4,92.4c0.7-1.8,1.7-3.5,2.7-5.2c1-1.7,2.2-3.3,3.5-4.8c1.3-1.5,2.8-2.9,4.4-4.1l1.3-0.9l1.3-0.8L163,76
			c0.5-0.2,1-0.4,1.4-0.6c1-0.4,2-0.7,3-0.9c0.5-0.1,1-0.2,1.6-0.3c0.5,0,1.1-0.2,1.6-0.2l1.6,0l1.6,0.1c1.1,0.1,2.1,0.3,3.1,0.5
			c0.5,0.1,1,0.3,1.5,0.5c0.5,0.2,1,0.4,1.4,0.6c1,0.4,1.9,0.9,2.8,1.3c0.9,0.5,1.8,1,2.7,1.6l2.5,1.7l0.5,0.4l0.2,0.7l16.5,54
			l4.1,13.5c0.7,2.3,1.4,4.4,2,6.9c0.6,2.4,0.9,4.8,1.2,7.2c0.3,2.4,0.4,4.8,0.4,7.2c0,1.2,0,2.4,0,3.6l0,0.5l0,0.2l0,0.1l0,0.2
			l-0.1,0.9c-0.1,0.7-0.2,1.5-0.5,2.1c-0.4,1.4-1.2,2.7-2.2,3.8c-1.1,1.1-2.4,1.8-3.7,2.3c-1.3,0.5-2.6,0.8-3.9,0.9
			c-1.3,0.1-2.6,0.1-3.8,0.1c-5-0.3-9.7-1.6-14.3-3c-1.1-0.4-2.3-0.8-3.4-1.2l-1.7-0.6l-0.4-0.2l-0.5-0.2c-0.3-0.1-0.5-0.2-0.8-0.4
			c-1.3-0.6-2.4-1.2-3.5-2.1c-1.1-0.9-2-1.9-2.8-2.9c-1.5-2.1-2.7-4.2-3.8-6.4c-0.5-1.1-1-2.2-1.5-3.2l-0.7-1.6l-0.4-0.8l-0.2-0.4
			l-0.1-0.3l-0.1-0.2c-0.9-2.1-1.7-4.5-2.4-6.8c-0.7-2.3-1.4-4.5-2-6.8c-1.3-4.5-2.5-9.1-3.7-13.7c-0.6-2.3-1.2-4.6-1.8-6.8
			c-0.5-2.3-0.9-4.6-1.3-6.9C151.5,111,149.9,101.8,148.4,92.4z M148.4,92.4l8.1,27.1c0.7,2.3,1.4,4.5,2,6.8
			c0.6,2.3,1.1,4.6,1.7,6.8c1.2,4.5,2.4,9.1,3.6,13.6c0.6,2.3,1.3,4.5,2,6.7c0.7,2.2,1.4,4.3,2.3,6.5l0.1,0.2l0,0.1c0-0.1,0,0,0,0
			l0,0l0.2,0.4l0.4,0.8l0.7,1.6c0.5,1.1,1,2.1,1.5,3.1c1,2.1,2.1,4,3.4,5.8c1.3,1.7,2.8,2.9,4.6,3.8c0.2,0.1,0.5,0.2,0.8,0.3
			l0.4,0.1l0.4,0.2l1.6,0.6c1.1,0.4,2.2,0.8,3.3,1.1c4.4,1.4,8.8,2.6,13.2,2.9c1.1,0.1,2.2,0.1,3.2,0c1-0.1,2-0.3,2.9-0.6
			c1.8-0.7,3-1.8,3.5-3.6c0.1-0.2,0.1-0.4,0.2-0.6c0-0.2,0.1-0.4,0.1-0.7l0.1-0.9l0-0.2l0-0.1c0,0.2,0,0,0,0l0-0.1l0-0.4
			c0-1.1,0-2.3,0-3.4c0-2.3-0.2-4.6-0.4-6.8c-0.2-2.3-0.6-4.5-1.1-6.7c-0.5-2.1-1.2-4.4-1.9-6.6l-4.1-13.5l-16.5-54l0.7,1l-2.3-1.6
			c-0.8-0.5-1.6-1-2.4-1.4c-0.8-0.4-1.6-0.8-2.5-1.1c-0.4-0.2-0.8-0.3-1.3-0.5c-0.4-0.1-0.9-0.2-1.3-0.4c-0.4-0.2-0.8-0.2-1.3-0.4
			c-0.4-0.1-0.8-0.3-1.3-0.3l-1.3-0.2l-1.3-0.1c-0.4-0.1-0.9,0-1.3,0c-0.4,0-0.9,0-1.3,0.1c-0.9,0.1-1.8,0.3-2.6,0.5
			c-0.4,0.1-0.9,0.2-1.3,0.4l-1.3,0.5l-1.2,0.6l-1.2,0.7c-1.6,0.9-3.1,2.1-4.5,3.3c-1.4,1.3-2.7,2.7-4,4.1
			C150.5,89.2,149.4,90.8,148.4,92.4z"/>
	</g>
	<g>
		<path class="st0" d="M184.8,78.6c3.6-16.8,29.3-23.7,40.5-11.1c0,0,31.1,110.5,31.8,113c0-0.1-21,5.9-22.7,6.2
			c-4,0.8-4.6,1.5-7.8,0.3c-6.2-2.3-14.5-13.2-17.6-19c-10.6-20.3-14.2-45.2-21.6-67c-2.4-7.1-4.1-14.7-2.7-22
			C184.7,79,184.7,78.8,184.8,78.6z"/>
		<path class="st1" d="M184.8,78.6l0.4-1.5l0.5-1.5l0.6-1.4c0.2-0.5,0.5-0.9,0.7-1.4l0.8-1.3l0.9-1.3l1-1.2l1.1-1.2l1.2-1.1l1.2-1
			l1.3-1l1.3-0.9l1.4-0.8l1.4-0.7l1.5-0.7l1.5-0.6c1-0.4,2.1-0.7,3.2-0.9c1.1-0.2,2.2-0.4,3.3-0.5c1.1-0.1,2.2-0.2,3.3-0.2
			c1.1,0,2.2,0.1,3.4,0.3c0.6,0.1,1.1,0.2,1.7,0.3c0.6,0.1,1.1,0.3,1.7,0.5c0.5,0.2,1.1,0.4,1.6,0.6c0.5,0.2,1,0.5,1.5,0.8l1.5,0.9
			l1.4,1l1.3,1.1l1.2,1.3l0.3,0.3l0.1,0.5l31.8,113l-3.8,1.1c0.1,0.3,0.4,1,1.2,1.3c0.6,0.3,1.3,0,1.1,0.1l0,0l-0.1,0l-0.3,0.1
			l-0.6,0.2l-1.1,0.3l-2.3,0.6l-4.6,1.3l-9.1,2.5l-2.3,0.6c-0.8,0.2-1.5,0.4-2.4,0.6c-0.8,0.2-1.5,0.3-2.3,0.5
			c-0.8,0.2-1.6,0.4-2.7,0.5c-1.1,0-2.1-0.2-3-0.5c-0.2-0.1-0.4-0.1-0.6-0.2L226,189l-0.1,0l-0.2-0.1l-0.3-0.1
			c-0.4-0.2-0.7-0.3-1.1-0.5l-1.2-0.7l-1.1-0.7c-0.7-0.5-1.4-1-2-1.6c-2.5-2.2-4.7-4.6-6.7-7.1c-2-2.5-3.9-5.2-5.5-8l-0.6-1.1
			l-0.5-1.1l-1.1-2.1c-0.7-1.4-1.3-2.9-2-4.4c-0.6-1.5-1.2-3-1.8-4.5l-1.6-4.5c-1-3-2-6-2.9-9.1c-0.9-3-1.8-6.1-2.6-9.1l-2.4-9.2
			c-0.4-1.5-0.8-3-1.2-4.6c-0.4-1.5-0.7-3.1-1.1-4.6c-0.7-3.1-1.4-6.1-2.1-9.2c-0.7-3.1-1.6-6.1-2.3-9.2c-0.7-3.1-1.2-6.3-1.4-9.4
			C184,84.9,184.1,81.7,184.8,78.6z M184.8,78.6c-0.3,1.5-0.5,3.1-0.5,4.7c0,1.6,0.1,3.1,0.3,4.7c0.4,3.1,1.3,6.1,2.3,9.1
			c1.1,2.9,2.4,5.8,3.5,8.8c1.1,3,2.2,6,3.2,9c1.1,3,1.8,6.1,2.5,9.1l2.4,9.1c0.8,3,1.7,6.1,2.6,9c0.9,3,1.8,6,2.9,8.9l1.6,4.4
			l1.7,4.3c0.6,1.4,1.2,2.8,1.9,4.2l1.1,2.1l0.5,1.1l0.5,0.9c1.5,2.6,3.3,5.1,5.2,7.5c1.9,2.4,4,4.7,6.2,6.6
			c0.6,0.5,1.1,0.9,1.7,1.4l0.9,0.6l0.8,0.5c0.3,0.2,0.7,0.3,1,0.5l0.3,0.1l0,0c0,0-0.2-0.1-0.1,0l0.1,0l0.1,0
			c0.2,0.1,0.3,0.1,0.5,0.2c0.6,0.2,1.2,0.3,1.7,0.3c1,0,2.7-0.6,4.3-0.9c0.6-0.1,1.5-0.4,2.2-0.6l2.3-0.6l9.1-2.5l4.6-1.3l2.3-0.6
			l1.1-0.3l0.6-0.2l0.3-0.1l0.2,0l0.1,0c-0.2,0.1,0.5-0.2,1.2,0.1c0.7,0.3,1.1,1,1.2,1.3l-3.8,1.1l-31.8-113l0.4,0.8l-1-1l-1.1-0.9
			l-1.1-0.8c-0.4-0.2-0.8-0.5-1.2-0.7l-1.3-0.6l-1.3-0.5c-0.9-0.3-1.8-0.6-2.7-0.9c-0.9-0.2-1.9-0.4-2.9-0.5c-1-0.1-2-0.2-2.9-0.2
			c-1,0-2,0-3,0.1c-1,0.1-2,0.2-3,0.4l-1.5,0.3l-1.5,0.4l-1.4,0.5l-1.4,0.6l-1.4,0.7l-1.3,0.8c-0.4,0.3-0.9,0.6-1.3,0.9l-1.2,0.9
			l-1.2,1c-0.4,0.4-0.7,0.7-1.1,1.1l-1,1.2l-0.9,1.3c-0.3,0.4-0.5,0.9-0.8,1.4l-0.7,1.4l-0.5,1.5L184.8,78.6z"/>
	</g>
	<g>
		<path class="st0" d="M241.5,136.5l-16.2-64.1c0,0,1.2-16.2,11.2-18.3c10-2.1,19.2-2.1,28.5,6.9c9.2,9,16.3,20.2,19.2,23.6
			c13.3,16,23.5,46.5,27.4,66.4c3.6,18.4-17.5,143.3-46.6,136.4C244.4,282.7,241.5,136.5,241.5,136.5z"/>
		<path class="st1" d="M241.5,136.5l-8.2-32.1l-8.3-32l0,0l0,0c0.2-2.4,0.7-4.8,1.4-7.2c0.7-2.3,1.7-4.6,3.1-6.7
			c1.4-2,3.4-3.8,5.8-4.6c1.2-0.4,2.4-0.6,3.6-0.8c1.2-0.2,2.4-0.4,3.6-0.5c2.4-0.3,4.9-0.3,7.4,0c2.5,0.3,4.9,1,7.2,2
			c2.3,1,4.4,2.4,6.3,3.9c0.5,0.4,0.9,0.8,1.4,1.2c0.5,0.4,0.9,0.8,1.4,1.3c0.9,0.8,1.7,1.7,2.6,2.6c3.4,3.5,6.5,7.3,9.4,11.2
			c1.5,1.9,2.9,3.9,4.4,5.8c0.7,1,1.4,1.9,2.2,2.8l2.3,2.8c6,7.9,10.4,16.6,14.3,25.5c1.9,4.5,3.6,9,5.2,13.6c1.6,4.6,3,9.3,4.3,14
			l0.9,3.5l0.9,3.6l0.8,3.6c0.1,0.3,0.1,0.5,0.2,1c0,0.3,0.1,0.6,0.1,0.9l0.1,1l0.1,1c0.2,2.5,0.1,5,0,7.4c-0.1,2.5-0.3,4.9-0.5,7.3
			c-0.9,9.7-2.2,19.3-3.9,28.9c-1.7,9.6-3.7,19-6.1,28.5c-2.4,9.4-5.2,18.7-8.5,27.9c-1.7,4.6-3.5,9.1-5.7,13.5
			c-2.1,4.4-4.6,8.7-7.6,12.7c-1.5,2-3.2,3.9-5.2,5.5c-2,1.6-4.4,2.9-7.1,3.4c-1.3,0.2-2.7,0.2-4.1-0.1l-0.3,0l-0.1,0
			c0.1,0-0.2-0.1-0.2-0.1l-0.4-0.2l-0.4-0.2c-0.2-0.1-0.3-0.2-0.5-0.3c-0.8-0.4-1.2-0.8-1.8-1.3c-1.9-1.9-3.2-4.2-4.2-6.4
			c-2-4.5-3.3-9.3-4.5-14c-1.1-4.7-2-9.5-2.8-14.3c-1.6-9.6-2.7-19.2-3.6-28.8c-0.9-9.6-1.6-19.3-2.3-28.9
			c-0.6-9.6-1.1-19.3-1.5-28.9C242.1,155.9,241.7,146.2,241.5,136.5z M241.5,136.5c0.2,9.7,0.6,19.3,1.1,29
			c0.5,9.6,1.1,19.3,1.9,28.9c0.7,9.6,1.7,19.2,2.8,28.8c1.1,9.6,2.5,19.2,4.2,28.6c0.9,4.7,1.9,9.4,3.1,14.1
			c1.2,4.6,2.6,9.2,4.6,13.5c1,2.1,2.2,4.1,3.8,5.6c0.4,0.3,0.8,0.7,1.2,0.8c0.1,0.1,0.2,0.1,0.3,0.2l0.4,0.1l0.4,0.1
			c0.1,0-0.2,0,0,0l0.1,0l0.2,0c1,0.2,2.1,0.2,3.1,0c2.1-0.4,4-1.5,5.8-3c1.7-1.5,3.3-3.2,4.6-5.1c2.7-3.8,5-8,7-12.3
			c2-4.3,3.7-8.8,5.3-13.3c3.2-9,5.8-18.3,8.1-27.6c2.3-9.3,4.3-18.8,5.9-28.2c1.7-9.5,3.1-19,4-28.5c0.4-4.8,0.8-9.6,0.6-14.2
			c0-2.1-0.7-4.5-1.1-6.8l-0.8-3.5l-0.9-3.5c-2.4-9.3-5.4-18.4-8.9-27.3c-1.8-4.4-3.7-8.8-5.9-13.1c-2.2-4.2-4.6-8.3-7.4-12.2
			l-2.2-2.9c-0.8-1-1.5-2-2.2-3c-1.4-2-2.8-3.9-4.2-5.9c-2.8-3.9-5.8-7.7-9-11.2c-0.8-0.9-1.6-1.8-2.5-2.6c-0.4-0.4-0.8-0.8-1.3-1.2
			c-0.4-0.4-0.8-0.8-1.3-1.2c-1.8-1.5-3.8-2.8-5.9-3.8c-4.2-2-9.1-2.6-13.8-2.2c-1.2,0.1-2.4,0.2-3.5,0.4c-1.2,0.2-2.4,0.4-3.5,0.7
			c-2.2,0.7-4.1,2.2-5.4,4.1c-1.4,1.9-2.4,4.1-3.1,6.4c-0.7,2.3-1.2,4.6-1.5,7l0-0.1l7.9,32.1L241.5,136.5z"/>
	</g>
	<g>
		<path class="st0" d="M183.7,86c0,0,42.9,0.7,52.6,0c0,0,9,2.8,18,13.2s42.2,49.9,42.2,49.9s18.7,16.6,12.5,39.5
			c-2.8,10.4-5.5,31.4-11.1,49.4c-6.6,21.4-15.9,39.2-15.9,39.2s-9.1,18.7-35,20.1s-68.8-9.7-56.4-90.7c0,0,4.2-38.1,37.4-44.3
			c0,0,0-4.2,0-7.6s0-3.5,0-3.5s-18.7-13.9-19.4-20.1c0,0-37.4-7.6-43.6-33.2C165.1,97.8,165.1,79.8,183.7,86z"/>
		<path class="st1" d="M183.8,85.8l26.3-0.3l13.1-0.2l6.6-0.2c2.2-0.1,4.4-0.2,6.5-0.3l0.2,0l0.2,0.1c1.9,0.6,3.6,1.4,5.3,2.4
			c1.7,0.9,3.3,1.9,4.8,3c1.5,1.1,3,2.3,4.4,3.5c1.4,1.2,2.7,2.6,4,4c1.3,1.4,2.4,2.8,3.6,4.1l3.6,4.2l7.2,8.3l14.3,16.7
			c4.8,5.6,9.5,11.2,14.2,16.8l-0.2-0.2c1.5,1.4,2.8,2.9,4.1,4.4c1.2,1.5,2.4,3.2,3.4,4.9c2.1,3.4,3.8,7,4.9,10.8
			c1.1,3.8,1.7,7.8,1.6,11.8c-0.1,2-0.3,4-0.7,5.9c-0.2,1-0.4,1.9-0.7,2.9l-0.7,2.8c-1.8,7.3-3.2,14.9-4.8,22.4
			c-1.6,7.5-3.3,15-5.6,22.3c-2.2,7.3-4.8,14.6-7.7,21.7c-1.4,3.6-2.9,7.1-4.5,10.6c-0.8,1.7-1.6,3.5-2.4,5.2
			c-0.8,1.7-1.6,3.4-2.6,5.2c-2,3.4-4.6,6.3-7.5,8.9c-2.9,2.6-6.2,4.8-9.7,6.4c-3.5,1.7-7.3,2.9-11.1,3.6c-3.8,0.7-7.7,1-11.6,1
			c-7.8,0-15.6-1.2-23-4.2c-7.3-2.9-14-7.7-18.9-13.9c-5-6.2-8.4-13.5-10.4-21.1c-2.1-7.6-3-15.4-3.2-23.1
			c-0.2-7.8,0.3-15.5,1.1-23.2c0.2-1.9,0.5-3.8,0.8-5.7c0.1-0.5,0.2-1,0.2-1.4c0.1-0.5,0.1-1,0.2-1.5c0.2-1,0.4-2,0.6-2.9
			c0.9-3.9,2-7.6,3.5-11.3c3-7.3,7.4-14.2,13.4-19.6c5.9-5.4,13.5-9,21.4-10.4l-1.6,1.9l0.1-11.1l0.8,1.5c-1-0.7-1.9-1.5-2.8-2.2
			c-0.9-0.7-1.8-1.5-2.8-2.3c-1.8-1.5-3.6-3.1-5.4-4.8c-1.7-1.6-3.5-3.4-5-5.2c-0.8-0.9-1.6-1.9-2.3-3c-0.3-0.5-0.7-1.1-1-1.8
			c-0.3-0.6-0.5-1.3-0.6-2.2l1.3,1.4c-1.3-0.3-2.4-0.6-3.6-0.9c-1.2-0.3-2.3-0.7-3.5-1.1c-2.3-0.8-4.6-1.6-6.8-2.6
			c-4.5-1.9-8.8-4.2-12.9-7c-4-2.8-7.8-6-10.9-9.9c-3.1-3.9-5.4-8.4-6.4-13.2l0-0.1l0-0.1c0-0.6,0.1-1.2,0.2-1.8
			c0.1-0.6,0.2-1.1,0.3-1.7c0.3-1.1,0.6-2.2,1.1-3.3c0.5-1.1,1.1-2.1,1.9-3c0.4-0.4,0.8-0.9,1.3-1.2c0.5-0.4,0.9-0.7,1.4-1
			c2-1.2,4.5-1.6,6.7-1.4c0.6,0,1.1,0.1,1.7,0.2c0.6,0.1,1.1,0.2,1.7,0.3l1.6,0.4L183.8,85.8z M183.7,86.2l-1.6-0.5l-1.6-0.3
			c-0.5-0.1-1.1-0.2-1.6-0.2c-0.5,0-1.1-0.1-1.6-0.1c-2.2,0-4.4,0.4-6.2,1.6c-0.5,0.3-0.9,0.6-1.3,1c-0.4,0.4-0.7,0.7-1.1,1.2
			c-0.7,0.8-1.2,1.8-1.6,2.8c-0.4,1-0.7,2-0.9,3.1c-0.1,0.5-0.2,1.1-0.2,1.6c-0.1,0.5-0.1,1.1-0.1,1.6l0-0.2
			c1.2,4.5,3.5,8.7,6.5,12.3c3,3.6,6.7,6.6,10.6,9.1c4,2.5,8.2,4.6,12.6,6.3c2.2,0.9,4.4,1.7,6.7,2.4c1.1,0.4,2.3,0.7,3.4,1
			c1.1,0.3,2.3,0.6,3.4,0.8l1.1,0.2l0.1,1.2c0.1,0.7,0.6,1.6,1.2,2.5c0.6,0.9,1.3,1.8,2,2.6c1.5,1.7,3.2,3.3,4.9,4.9
			c1.7,1.6,3.5,3.1,5.3,4.5c0.9,0.7,1.8,1.5,2.7,2.2c0.9,0.7,1.9,1.4,2.8,2.1l0.8,0.5l0,1l0.1,11.1l0,1.6l-1.6,0.3
			c-7.2,1.4-14,4.6-19.3,9.6c-5.4,4.9-9.4,11.3-12.2,18.1c-1.4,3.4-2.5,7-3.3,10.6c-0.2,0.9-0.4,1.8-0.5,2.7
			c-0.1,0.4-0.1,0.9-0.2,1.3l-0.2,1.5c-0.3,1.9-0.5,3.7-0.8,5.6c-0.9,7.5-1.5,15.1-1.4,22.6c0.1,7.5,0.9,15,2.8,22.3
			c1.9,7.2,5,14.1,9.5,19.9c4.5,5.8,10.6,10.4,17.4,13.3c6.8,2.9,14.3,4.3,21.8,4.5c3.8,0.1,7.5-0.1,11.2-0.7
			c3.7-0.6,7.3-1.7,10.7-3.2c6.8-3,12.9-8,16.8-14.4c0.9-1.6,1.8-3.3,2.6-5c0.8-1.7,1.6-3.4,2.4-5.2c1.6-3.5,3.1-7,4.6-10.5
			c2.9-7.1,5.4-14.3,7.5-21.6c2.1-7.3,3.7-14.8,5-22.3c1.4-7.5,2.6-15,4.2-22.6l0.7-2.8c0.2-0.9,0.4-1.8,0.5-2.7
			c0.3-1.8,0.4-3.7,0.4-5.5c0-3.7-0.6-7.3-1.8-10.8c-1.1-3.5-2.8-6.8-4.8-9.9c-1-1.6-2.1-3.1-3.3-4.5c-1.2-1.4-2.4-2.8-3.7-4
			l-0.1-0.1l-0.1-0.1c-4.7-5.6-9.5-11.2-14.2-16.8L267,116.5l-7-8.4l-3.5-4.2c-1.2-1.4-2.4-2.8-3.5-4.2c-1.2-1.3-2.4-2.6-3.7-3.9
			c-1.3-1.2-2.6-2.4-4.1-3.5c-1.4-1.1-2.9-2.1-4.4-3c-1.5-0.9-3.2-1.7-4.7-2.3l0.4,0.1c-2.2,0.1-4.4,0.1-6.6,0.1l-6.6,0
			c-4.4,0-8.8-0.1-13.2-0.2C201.3,86.8,192.5,86.6,183.7,86.2L183.7,86.2z"/>
	</g>
</g>
<path class="st1" d="M362.2,424.2H60c-33.1,0-60-27.1-60-60.5V59.5C0,26.1,26.9-1,60-1h302.1c33.1,0,60,27.1,60,60.5v304.3
	C422.2,397.1,395.3,424.2,362.2,424.2z M60,4.9C30.2,4.9,5.9,29.4,5.9,59.5v304.3c0,30.1,24.3,54.6,54.2,54.6h302.1
	c29.9,0,54.2-24.5,54.2-54.6V59.5c0-30.1-24.3-54.6-54.2-54.6H60z"/>
</svg>
